<svg width="95" height="95" viewBox="0 0 95 95" fill="none" xmlns="http://www.w3.org/2000/svg">
<path fill-rule="evenodd" clip-rule="evenodd" d="M44.2456 17.1958C46.1185 15.6014 48.8815 15.6014 50.7543 17.1958L79.2436 41.4534C82.7687 44.4549 80.632 50.1932 75.9893 50.1932H73.0035V75.0322C73.0035 77.7759 70.7647 80 68.0028 80H62.2449C62.2891 78.8484 62.3121 77.4467 62.3121 75.7493C62.3121 72.0515 59.9719 69.3551 57.6134 66.9549C57.0472 66.2793 56.5139 65.6397 55.989 65.01L55.2269 64.0963C54.8433 63.6367 54.4575 63.1757 54.0602 62.7029C53.7643 62.3509 53.462 61.9925 53.149 61.6234C52.3207 60.6339 51.2586 59.6446 49.9984 59.2048C49.8895 59.1646 49.7806 59.1297 49.6717 59.1005C49.5826 59.0766 49.4934 59.0564 49.4043 59.0399C48.9543 58.9666 48.4681 58.9666 48.0001 58.9666C47.5322 58.9666 47.0461 58.9666 46.578 59.0583C46.38 59.0949 46.1819 59.1499 45.9839 59.2231C44.7237 59.6629 43.6796 60.6522 42.8336 61.6417C42.2854 62.2956 41.768 62.916 41.2592 63.5263L41.2101 63.5853C40.6736 64.2289 40.1457 64.8621 39.6 65.5126C39.2025 65.9867 38.7954 66.47 38.3689 66.9732C38.0893 67.2577 37.8097 67.5323 37.534 67.803C35.4847 69.8151 33.6522 71.6142 33.6522 75.7493C33.6522 77.4219 33.6707 78.8262 33.7064 80H27.9973C25.2355 80 22.9966 77.7759 22.9966 75.0322V50.1932H19.0107C14.368 50.1932 12.2313 44.4549 15.7564 41.4534L44.2456 17.1958ZM42.5994 54.3862C45.0849 54.3862 47.1 52.3355 47.1 49.8058C47.1 47.276 45.0849 45.2253 42.5994 45.2253C40.1137 45.2253 38.0988 47.276 38.0988 49.8058C38.0988 52.3355 40.1137 54.3862 42.5994 54.3862ZM34.4982 61.7149C36.9839 61.7149 38.9988 59.6641 38.9988 57.1345C38.9988 54.6048 36.9839 52.5541 34.4982 52.5541C32.0125 52.5541 29.9976 54.6048 29.9976 57.1345C29.9976 59.6641 32.0125 61.7149 34.4982 61.7149ZM57.9013 49.8058C57.9013 52.3355 55.8864 54.3862 53.4007 54.3862C50.9153 54.3862 48.9001 52.3355 48.9001 49.8058C48.9001 47.276 50.9153 45.2253 53.4007 45.2253C55.8864 45.2253 57.9013 47.276 57.9013 49.8058ZM61.5019 61.7149C63.9876 61.7149 66.0025 59.6641 66.0025 57.1345C66.0025 54.6048 63.9876 52.5541 61.5019 52.5541C59.0162 52.5541 57.0013 54.6048 57.0013 57.1345C57.0013 59.6641 59.0162 61.7149 61.5019 61.7149Z" fill="#F16F33"/>
</svg>
