<svg width="95" height="95" viewBox="0 0 95 95" fill="none" xmlns="http://www.w3.org/2000/svg">
<path d="M76.5 46C76.5 58.8133 73.0462 66.5185 67.9593 71.0754C62.82 75.6793 55.5417 77.5 47 77.5C38.4908 77.5 31.2039 75.5688 26.0517 70.8979C20.9462 66.2691 17.5 58.5486 17.5 46C17.5 29.9938 32.0758 18.5 47 18.5C61.9242 18.5 76.5 29.9938 76.5 46Z" stroke="#F16F33" stroke-width="5"/>
<path d="M51.5 56.536C51.5 57.9248 50.9724 59.5223 50.0694 60.7385C49.1677 61.953 48.1314 62.5 47.1795 62.5C46.1942 62.5 45.0524 61.9177 44.0573 60.67C43.0667 59.4278 42.5 57.8498 42.5 56.536C42.5 56.0581 42.5733 55.8543 42.5996 55.7973C42.6294 55.7785 42.697 55.7442 42.8296 55.7039C43.1573 55.6044 43.6653 55.5358 44.4614 55.5114C44.9944 55.4951 45.5342 55.4993 46.1483 55.5042C46.4686 55.5067 46.8091 55.5093 47.1795 55.5093C47.5544 55.5093 47.8953 55.5066 48.2131 55.5041C48.8137 55.4993 49.3313 55.4952 49.8384 55.5113C50.6002 55.5356 51.0416 55.6039 51.301 55.6885C51.3484 55.704 51.3811 55.717 51.4026 55.7267C51.4341 55.8099 51.5 56.0432 51.5 56.536ZM42.6088 55.7796C42.6089 55.7796 42.6081 55.7809 42.6065 55.7833C42.608 55.7808 42.6088 55.7796 42.6088 55.7796ZM42.5911 55.8028C42.5847 55.8097 42.5803 55.8128 42.5797 55.8126C42.5791 55.8124 42.5824 55.8089 42.5911 55.8028ZM51.4386 55.7459C51.4383 55.7459 51.4353 55.7442 51.4305 55.7405C51.4365 55.7439 51.4389 55.7458 51.4386 55.7459Z" fill="#F16F33" stroke="#F16F33" stroke-width="5"/>
<circle cx="34" cy="48" r="3" fill="#F16F33"/>
<circle cx="59" cy="48" r="3" fill="#F16F33"/>
<path d="M44.5 70C44.5 71.3807 45.6193 72.5 47 72.5C48.3807 72.5 49.5 71.3807 49.5 70H44.5ZM49.5 70V62H44.5V70H49.5Z" fill="#F16F33"/>
<path d="M10.6036 55.8774C9.24032 56.0963 8.31271 57.379 8.53168 58.7422C8.75066 60.1055 10.0333 61.0331 11.3965 60.8141L10.6036 55.8774ZM11.3965 60.8141L19.7744 59.4684L18.9814 54.5316L10.6036 55.8774L11.3965 60.8141Z" fill="#F16F33"/>
<path d="M83.4336 55.8774C84.7968 56.0963 85.7244 57.379 85.5054 58.7422C85.2865 60.1055 84.0038 61.0331 82.6406 60.8141L83.4336 55.8774ZM82.6406 60.8141L74.2627 59.4684L75.0557 54.5316L83.4336 55.8774L82.6406 60.8141Z" fill="#F16F33"/>
<path d="M12.6032 65.6681C11.4581 66.4396 11.1553 67.9932 11.9268 69.1383C12.6983 70.2833 14.252 70.5862 15.397 69.8147L12.6032 65.6681ZM15.397 69.8147L22.434 65.0733L19.6402 60.9267L12.6032 65.6681L15.397 69.8147Z" fill="#F16F33"/>
<path d="M81.4339 65.6681C82.579 66.4396 82.8818 67.9932 82.1103 69.1383C81.3388 70.2833 79.7851 70.5862 78.6401 69.8147L81.4339 65.6681ZM78.6401 69.8147L71.6031 65.0733L74.3969 60.9267L81.4339 65.6681L78.6401 69.8147Z" fill="#F16F33"/>
<path d="M17.748 40.7997C15.8459 35.022 12.2017 23.2476 15.3851 18.9041C17.4752 16.0524 34.1262 19.0511 37.472 21.065" stroke="#F16F33" stroke-width="5"/>
<path d="M76.2373 40.7997C78.1395 35.022 81.7836 23.2476 78.6002 18.9041C76.5101 16.0524 59.8592 19.0511 56.5134 21.065" stroke="#F16F33" stroke-width="5"/>
</svg>
