<svg width="35" height="35" viewBox="0 0 35 35" fill="none" xmlns="http://www.w3.org/2000/svg">
<path d="M32.807 35C14.1441 35.0264 -0.0199448 20.6926 2.10819e-05 2.19299C2.10819e-05 0.984867 0.979399 0 2.18752 0H7.96112C9.04518 0 9.9661 0.796533 10.1253 1.86884C10.5068 4.43887 11.2551 6.94087 12.3473 9.29841L12.5721 9.7836C12.8847 10.4582 12.6728 11.2598 12.0677 11.6919C10.2797 12.9688 9.59639 15.539 10.9893 17.5445C12.7373 20.0612 14.9407 22.2642 17.4568 24.0114C19.4622 25.4039 22.0321 24.7207 23.3089 22.933C23.7413 22.3276 24.5433 22.1156 25.2184 22.4283L25.7013 22.652C28.059 23.7442 30.5612 24.4925 33.1315 24.874C34.2039 25.0331 35 25.954 35 27.0381V32.8125C35 34.0206 34.0182 35 32.8101 35L32.807 35Z" fill="#F16F33"/>
</svg>
