<svg width="20" height="39" viewBox="0 0 20 39" fill="none" xmlns="http://www.w3.org/2000/svg">
<path d="M18.2611 39C18.7031 39 19.1451 38.8425 19.494 38.5051C20.1687 37.8528 20.1687 36.773 19.494 36.1207L4.32684 21.4542C3.21024 20.3745 3.21024 18.6199 4.32684 17.5402L19.494 2.87368C20.1687 2.22134 20.1687 1.1416 19.494 0.489257C18.8194 -0.163086 17.7028 -0.163086 17.0282 0.489257L1.86101 15.1557C0.674614 16.303 0 17.8551 0 19.4972C0 21.1393 0.651352 22.6914 1.86101 23.8386L17.0282 38.5051C17.3771 38.82 17.8191 39 18.2611 39Z" fill="#3D2D16"/>
</svg>
