<svg width="20" height="39" viewBox="0 0 20 39" fill="none" xmlns="http://www.w3.org/2000/svg">
<path d="M1.73888 39C1.29689 39 0.8549 38.8425 0.505961 38.5051C-0.168654 37.8528 -0.168654 36.773 0.505961 36.1207L15.6732 21.4542C16.7898 20.3745 16.7898 18.6199 15.6732 17.5402L0.505961 2.87368C-0.168654 2.22134 -0.168654 1.1416 0.505961 0.489257C1.18058 -0.163086 2.29718 -0.163086 2.97179 0.489257L18.139 15.1557C19.3254 16.303 20 17.8551 20 19.4972C20 21.1393 19.3486 22.6914 18.139 23.8386L2.97179 38.5051C2.62285 38.82 2.18087 39 1.73888 39Z" fill="#3D2D16"/>
</svg>
