<svg width="35" height="35" viewBox="0 0 35 35" fill="none" xmlns="http://www.w3.org/2000/svg">
<path d="M17.5 35C7.84651 35 0 27.1535 0 17.5C0 7.84651 7.84651 0 17.5 0C27.1535 0 35 7.84651 35 17.5C35 27.1535 27.1535 35 17.5 35ZM17.5 2.44186C9.19768 2.44186 2.44186 9.19768 2.44186 17.5C2.44186 25.8023 9.19768 32.5581 17.5 32.5581C25.8023 32.5581 32.5581 25.8023 32.5581 17.5C32.5581 9.19768 25.8023 2.44186 17.5 2.44186Z" fill="#F16F33"/>
<path d="M23.5395 23.8977C23.3279 23.8977 23.1163 23.8488 22.9209 23.7186L17.8744 20.707C16.6209 19.9581 15.693 18.314 15.693 16.8651V10.1907C15.693 9.52326 16.2465 8.96977 16.914 8.96977C17.5814 8.96977 18.1349 9.52326 18.1349 10.1907V16.8651C18.1349 17.4512 18.6233 18.314 19.1279 18.607L24.1744 21.6186C24.7605 21.9605 24.9395 22.7093 24.5977 23.2954C24.3535 23.686 23.9465 23.8977 23.5395 23.8977Z" fill="#F16F33"/>
</svg>
