<svg width="95" height="95" viewBox="0 0 95 95" fill="none" xmlns="http://www.w3.org/2000/svg">
<path fill-rule="evenodd" clip-rule="evenodd" d="M78.1218 48.5533C78.0238 48.6511 77.9251 48.7478 77.8254 48.8432L77.8283 48.846L72.6856 53.9767L69.8043 51.0842L77.9747 42.9138C78.7753 42.1132 78.7768 40.8189 77.978 40.017L69.089 31.0931C68.2902 30.2912 66.9984 30.2902 66.1978 31.0908L58.0274 39.2611L49.8758 31.057C49.077 30.2551 47.7852 30.254 46.9845 31.0546L38.0751 39.964C37.6851 40.3746 37.4794 40.8881 37.4788 41.4222C37.4782 41.9564 37.6622 42.4702 38.0718 42.8814L42.1477 46.9732L46.2235 51.065L38.0531 59.2354C37.2525 60.036 37.251 61.3304 38.0498 62.1323L46.9388 71.0561C47.7376 71.858 49.0294 71.8591 49.8301 71.0585L58.0004 62.8881L60.8679 65.7668L46.6016 80L15.9949 49.4645L16.0078 49.4516C9.11693 41.953 9.34124 30.2674 16.6578 22.9675C24.175 15.4681 36.3319 15.4373 43.8108 22.8989C45.2547 24.3395 46.4186 25.9539 47.303 27.6753C48.2717 25.5768 49.6283 23.6031 51.3708 21.8645C59.0195 14.2336 71.2084 14.022 78.5955 21.3919C85.9826 28.7616 85.7705 40.9222 78.1218 48.5533ZM70.4967 56.1604L63.0425 63.5973L60.1764 60.7121L67.6283 53.2808L70.4967 56.1604ZM62.1583 48.9824C63.2861 48.9833 64.2078 49.9086 64.2065 51.0386C64.2052 52.1685 63.2814 53.0923 62.1536 53.0914C61.0259 53.0905 60.1042 52.1652 60.1055 51.0352C60.1068 49.9052 61.0306 48.9815 62.1583 48.9824ZM58.0479 57.1971C56.9202 57.1962 55.9985 56.2709 55.9998 55.1409C56.0011 54.011 56.9248 53.0872 58.0526 53.0881C59.1804 53.089 60.1021 54.0143 60.1008 55.1443C60.0995 56.2743 59.1757 57.198 58.0479 57.1971ZM53.9516 53.0848C52.8238 53.0838 51.9022 52.1586 51.9035 51.0286C51.9047 49.8986 52.8285 48.9748 53.9563 48.9757C55.0841 48.9766 56.0058 49.9019 56.0045 51.0319C56.0032 52.1619 55.0794 53.0857 53.9516 53.0848ZM58.062 44.87C59.1898 44.8709 60.1115 45.7962 60.1102 46.9262C60.1089 48.0562 59.1851 48.98 58.0573 48.979C56.9295 48.9781 56.0079 48.0528 56.0092 46.9229C56.0105 45.7929 56.9342 44.8691 58.062 44.87ZM48.379 48.9095L40.9647 41.4456L48.4165 34.0143L55.8309 41.4577L48.379 48.9095Z" fill="#F16F33"/>
</svg>
