<svg width="95" height="95" viewBox="0 0 95 95" fill="none" xmlns="http://www.w3.org/2000/svg">
<path d="M76.5001 46C76.5001 58.8133 73.0463 66.5185 67.9595 71.0754C62.8201 75.6793 55.5418 77.5 47.0001 77.5C38.4909 77.5 31.204 75.5688 26.0519 70.8979C20.9463 66.2691 17.5001 58.5486 17.5001 46C17.5001 29.9938 32.076 18.5 47.0001 18.5C61.9243 18.5 76.5001 29.9938 76.5001 46Z" stroke="#F16F33" stroke-width="5"/>
<path d="M54 54C54 56.2136 53.1848 58.701 51.8013 60.5978C50.4161 62.4969 48.7111 63.5 47 63.5C45.2547 63.5 43.4099 62.4604 41.8968 60.5292C40.3912 58.6076 39.5 56.1398 39.5 54C39.5 52.9396 39.716 52.4921 39.8383 52.3162C39.9419 52.1673 40.1356 51.9818 40.6676 51.8173C41.2457 51.6385 42.0533 51.5387 43.1854 51.5034C43.9453 51.4797 44.7262 51.4859 45.5943 51.4928C46.0372 51.4963 46.5028 51.5 47 51.5C47.5025 51.5 47.9684 51.4962 48.4079 51.4927C49.258 51.4859 50.009 51.4798 50.7333 51.5033C51.8179 51.5385 52.5409 51.638 53.0329 51.8014C53.4593 51.9431 53.5948 52.091 53.678 52.2229C53.796 52.4099 54 52.8906 54 54Z" fill="#F16F33" stroke="#F16F33" stroke-width="5"/>
<path d="M22.6742 61.5592C23.0586 59.0479 24.4134 56.9752 25.9402 55.5046C26.6997 54.7731 27.4615 54.2309 28.0883 53.8856C28.4813 53.6692 28.7399 53.5741 28.8672 53.5324C28.8675 53.5325 28.8678 53.5326 28.8681 53.5327C29.0435 53.6034 29.3022 53.733 29.6325 53.9405C30.2917 54.3547 31.0961 54.9907 31.9014 55.8039C33.552 57.4708 34.9123 59.579 35.277 61.6206C35.9174 65.2057 35.0907 67.3152 33.9947 68.5254C32.8448 69.795 31.0155 70.5 28.9134 70.5C26.8524 70.5 25.1176 69.7873 24.012 68.5132C22.9319 67.2685 22.1301 65.1139 22.6742 61.5592ZM28.7286 53.4841C28.7286 53.4841 28.7296 53.4843 28.7317 53.4849C28.7296 53.4844 28.7286 53.4842 28.7286 53.4841Z" stroke="#F16F33" stroke-width="5"/>
<circle cx="34" cy="44" r="3" fill="#F16F33"/>
<circle cx="59" cy="44" r="3" fill="#F16F33"/>
<path d="M47 77.5V62.5" stroke="#F16F33" stroke-width="5"/>
<path d="M17.6562 52.5784C4.26877 56.1312 4.26875 36.3369 13.3531 26.6939C20.0469 19.5885 29.6094 18.5733 32 21.6187" stroke="#F16F33" stroke-width="5"/>
<path d="M75.3438 52.5784C88.7312 56.1312 88.7312 36.3369 79.6469 26.6939C72.9531 19.5885 63.3906 18.5733 61 21.6187" stroke="#F16F33" stroke-width="5"/>
</svg>
